<svg xmlns="http://www.w3.org/2000/svg" width="1600" height="900" viewBox="0 0 1600 900">
  <defs>
    <linearGradient id="bg" x1="0" y1="0" x2="1" y2="1">
      <stop offset="0%" stop-color="#ffd9de"/>
      <stop offset="100%" stop-color="#f09aa8"/>
    </linearGradient>
  </defs>
  <rect width="1600" height="900" fill="url(#bg)"/>
  <path d="M800 170c150 0 250 115 250 235 0 150-120 250-250 300-130-50-250-150-250-300 0-120 100-235 250-235z" fill="#f5d1b2"/>
  <path d="M540 350c20-170 500-170 520 0-20-30-70-70-260-70s-240 40-260 70z" fill="#4a2c2f"/>
  <path d="M620 560c40 45 320 45 360 0" stroke="#4a2c2f" stroke-width="26" fill="none" stroke-linecap="round"/>
  <text x="800" y="760" font-family="Georgia, serif" font-size="64" text-anchor="middle" fill="#451f26">Bob a la Barbilla</text>
  <text x="800" y="820" font-family="Georgia, serif" font-size="44" text-anchor="middle" fill="#451f26">Balance y Volumen</text>
</svg>
