<svg xmlns="http://www.w3.org/2000/svg" width="1600" height="900" viewBox="0 0 1600 900">
  <defs>
    <linearGradient id="bg" x1="0" y1="0" x2="1" y2="1">
      <stop offset="0%" stop-color="#d5e8f8"/>
      <stop offset="100%" stop-color="#8fb3d9"/>
    </linearGradient>
  </defs>
  <rect width="1600" height="900" fill="url(#bg)"/>
  <circle cx="800" cy="430" r="240" fill="#f2cfb0"/>
  <path d="M560 320c40-150 440-150 480 0 16 60 7 110-3 145-55-45-140-70-237-70s-182 25-237 70c-10-35-19-85-3-145z" fill="#3f2e27"/>
  <path d="M510 370c20 150 80 250 130 250M1090 370c-20 150-80 250-130 250" stroke="#3f2e27" stroke-width="38" stroke-linecap="round"/>
  <text x="800" y="760" font-family="Georgia, serif" font-size="64" text-anchor="middle" fill="#1f2f3d">Capas Largas</text>
  <text x="800" y="820" font-family="Georgia, serif" font-size="44" text-anchor="middle" fill="#1f2f3d">Volumen Superior</text>
</svg>
